STARTFONT 2.1
COMMENT $XConsortium: luIS10.bdf,v 1.7 94/04/02 15:59:46 gildea Exp $
COMMENT  (c) Copyright Bigelow & Holmes 1986, 1985. Lucida is a registered
COMMENT  trademark of Bigelow & Holmes. See LEGAL NOTICE file for terms 
COMMENT  of the license. 
COMMENT GRID 0010 0010 0200 0200
COMMENT  
COMMENT  Translation to ISO8859-2 by Cub Soft;  Petr.Kolar@vslib.cz
COMMENT  
FONT -B&H-Lucida-Medium-I-Normal-Sans-10-100-75-75-P-59-ISO8859-2
SIZE 10 72 72
FONTBOUNDINGBOX 12 11 -1 -2
STARTPROPERTIES 20
COMMENT Begin LogicalFontDescription
FONTNAME_REGISTRY ""
FOUNDRY "B&H"
FAMILY_NAME "Lucida"
WEIGHT_NAME "Medium"
SLANT "I"
SETWIDTH_NAME "Normal"
ADD_STYLE_NAME "Sans"
PIXEL_SIZE 10
POINT_SIZE 100
RESOLUTION_X 75
RESOLUTION_Y 75
SPACING "P"
AVERAGE_WIDTH 59
CHARSET_REGISTRY "ISO8859"
CHARSET_ENCODING "2"
COMMENT END LogicalFontDescription
FONT_ASCENT 9
FONT_DESCENT 2
DEFAULT_CHAR 0
COPYRIGHT "Copyright Bigelow & Holmes 1986, 1985., Copyright 1996 Cub Soft"
FACE_NAME "Lucida Sans Italic"
ENDPROPERTIES
CHARS 191
STARTCHAR space
ENCODING 32
SWIDTH 316 0
DWIDTH 3 0
BBX 1 1 0 0
BITMAP
00
ENDCHAR
STARTCHAR exclam
ENCODING 33
SWIDTH 193 0
DWIDTH 3 0
BBX 3 7 0 0
BITMAP
20
20
40
40
00
80
80
ENDCHAR
STARTCHAR quotedbl
ENCODING 34
SWIDTH 361 0
DWIDTH 4 0
BBX 3 3 1 5
BITMAP
a0
a0
a0
ENDCHAR
STARTCHAR numbersign
ENCODING 35
SWIDTH 633 0
DWIDTH 7 0
BBX 7 7 0 0
BITMAP
14
14
76
28
ec
50
50
ENDCHAR
STARTCHAR dollar
ENCODING 36
SWIDTH 633 0
DWIDTH 7 0
BBX 6 9 1 -1
BITMAP
10
3c
50
50
30
28
28
f0
20
ENDCHAR
STARTCHAR percent
ENCODING 37
SWIDTH 741 0
DWIDTH 8 0
BBX 7 7 1 0
BITMAP
40
a4
48
10
24
4a
04
ENDCHAR
STARTCHAR ampersand
ENCODING 38
SWIDTH 701 0
DWIDTH 7 0
BBX 6 7 1 0
BITMAP
38
48
30
64
94
98
e4
ENDCHAR
STARTCHAR apostrophe
ENCODING 39
SWIDTH 217 0
DWIDTH 3 0
BBX 2 3 1 5
BITMAP
40
40
80
ENDCHAR
STARTCHAR parenleft
ENCODING 40
SWIDTH 325 0
DWIDTH 3 0
BBX 4 9 0 -1
BITMAP
10
20
40
40
80
80
80
80
40
ENDCHAR
STARTCHAR parenright
ENCODING 41
SWIDTH 325 0
DWIDTH 3 0
BBX 4 9 -1 -1
BITMAP
20
10
10
10
10
20
20
40
80
ENDCHAR
STARTCHAR asterisk
ENCODING 42
SWIDTH 470 0
DWIDTH 5 0
BBX 5 3 0 4
BITMAP
58
20
d0
ENDCHAR
STARTCHAR plus
ENCODING 43
SWIDTH 633 0
DWIDTH 7 0
BBX 6 5 1 1
BITMAP
10
10
fc
20
20
ENDCHAR
STARTCHAR comma
ENCODING 44
SWIDTH 316 0
DWIDTH 3 0
BBX 2 3 0 -1
BITMAP
40
40
80
ENDCHAR
STARTCHAR minus
ENCODING 45
SWIDTH 633 0
DWIDTH 7 0
BBX 6 1 1 3
BITMAP
fc
ENDCHAR
STARTCHAR period
ENCODING 46
SWIDTH 316 0
DWIDTH 3 0
BBX 1 2 1 0
BITMAP
80
80
ENDCHAR
STARTCHAR slash
ENCODING 47
SWIDTH 482 0
DWIDTH 5 0
BBX 6 9 -1 -1
BITMAP
04
04
08
10
10
20
40
80
80
ENDCHAR
STARTCHAR zero
ENCODING 48
SWIDTH 633 0
DWIDTH 7 0
BBX 5 7 1 0
BITMAP
30
48
48
88
90
90
60
ENDCHAR
STARTCHAR one
ENCODING 49
SWIDTH 633 0
DWIDTH 7 0
BBX 3 7 2 0
BITMAP
20
e0
20
60
40
40
40
ENDCHAR
STARTCHAR two
ENCODING 50
SWIDTH 633 0
DWIDTH 7 0
BBX 5 7 1 0
BITMAP
70
08
08
30
40
80
f0
ENDCHAR
STARTCHAR three
ENCODING 51
SWIDTH 633 0
DWIDTH 7 0
BBX 5 7 1 0
BITMAP
70
08
08
30
10
10
e0
ENDCHAR
STARTCHAR four
ENCODING 52
SWIDTH 633 0
DWIDTH 7 0
BBX 5 7 1 0
BITMAP
18
28
48
90
f8
10
10
ENDCHAR
STARTCHAR five
ENCODING 53
SWIDTH 633 0
DWIDTH 7 0
BBX 6 7 1 0
BITMAP
3c
40
70
08
08
10
e0
ENDCHAR
STARTCHAR six
ENCODING 54
SWIDTH 633 0
DWIDTH 7 0
BBX 6 7 1 0
BITMAP
1c
20
40
70
88
88
70
ENDCHAR
STARTCHAR seven
ENCODING 55
SWIDTH 633 0
DWIDTH 7 0
BBX 6 7 1 0
BITMAP
7c
04
08
10
20
40
80
ENDCHAR
STARTCHAR eight
ENCODING 56
SWIDTH 633 0
DWIDTH 7 0
BBX 5 7 1 0
BITMAP
30
48
48
70
88
88
70
ENDCHAR
STARTCHAR nine
ENCODING 57
SWIDTH 633 0
DWIDTH 7 0
BBX 6 7 0 0
BITMAP
38
44
44
38
08
10
e0
ENDCHAR
STARTCHAR colon
ENCODING 58
SWIDTH 316 0
DWIDTH 3 0
BBX 2 6 1 0
BITMAP
40
40
00
00
80
80
ENDCHAR
STARTCHAR semicolon
ENCODING 59
SWIDTH 316 0
DWIDTH 3 0
BBX 3 7 0 -1
BITMAP
20
20
00
00
40
40
80
ENDCHAR
STARTCHAR less
ENCODING 60
SWIDTH 633 0
DWIDTH 7 0
BBX 6 5 0 1
BITMAP
0c
30
c0
20
10
ENDCHAR
STARTCHAR equal
ENCODING 61
SWIDTH 633 0
DWIDTH 7 0
BBX 6 3 1 2
BITMAP
7c
00
f8
ENDCHAR
STARTCHAR greater
ENCODING 62
SWIDTH 633 0
DWIDTH 7 0
BBX 6 5 1 1
BITMAP
20
10
0c
30
c0
ENDCHAR
STARTCHAR question
ENCODING 63
SWIDTH 464 0
DWIDTH 5 0
BBX 4 7 1 0
BITMAP
60
90
10
60
00
80
80
ENDCHAR
STARTCHAR at
ENCODING 64
SWIDTH 858 0
DWIDTH 9 0
BBX 7 7 1 0
BITMAP
1c
22
4e
94
9e
80
78
ENDCHAR
STARTCHAR A
ENCODING 65
SWIDTH 687 0
DWIDTH 7 0
BBX 5 7 1 0
BITMAP
08
18
28
48
78
88
88
ENDCHAR
STARTCHAR B
ENCODING 66
SWIDTH 593 0
DWIDTH 6 0
BBX 4 7 1 0
BITMAP
60
50
50
e0
90
90
e0
ENDCHAR
STARTCHAR C
ENCODING 67
SWIDTH 679 0
DWIDTH 7 0
BBX 6 7 1 0
BITMAP
3c
40
80
80
80
80
78
ENDCHAR
STARTCHAR D
ENCODING 68
SWIDTH 743 0
DWIDTH 8 0
BBX 6 7 1 0
BITMAP
78
44
44
c4
84
88
f0
ENDCHAR
STARTCHAR E
ENCODING 69
SWIDTH 547 0
DWIDTH 6 0
BBX 5 7 1 0
BITMAP
78
40
40
f0
80
80
f0
ENDCHAR
STARTCHAR F
ENCODING 70
SWIDTH 536 0
DWIDTH 6 0
BBX 5 7 1 0
BITMAP
78
40
40
f0
80
80
80
ENDCHAR
STARTCHAR G
ENCODING 71
SWIDTH 702 0
DWIDTH 7 0
BBX 6 7 1 0
BITMAP
3c
40
80
88
88
88
70
ENDCHAR
STARTCHAR H
ENCODING 72
SWIDTH 735 0
DWIDTH 7 0
BBX 5 7 1 0
BITMAP
48
48
48
f8
90
90
90
ENDCHAR
STARTCHAR I
ENCODING 73
SWIDTH 289 0
DWIDTH 4 0
BBX 2 7 1 0
BITMAP
40
40
40
c0
80
80
80
ENDCHAR
STARTCHAR J
ENCODING 74
SWIDTH 408 0
DWIDTH 4 0
BBX 4 8 -1 -1
BITMAP
10
10
10
30
20
20
20
c0
ENDCHAR
STARTCHAR K
ENCODING 75
SWIDTH 635 0
DWIDTH 7 0
BBX 6 7 1 0
BITMAP
44
48
50
e0
a0
90
88
ENDCHAR
STARTCHAR L
ENCODING 76
SWIDTH 545 0
DWIDTH 5 0
BBX 4 7 1 0
BITMAP
40
40
40
c0
80
80
f0
ENDCHAR
STARTCHAR M
ENCODING 77
SWIDTH 828 0
DWIDTH 9 0
BBX 7 7 1 0
BITMAP
42
66
5a
d2
94
84
84
ENDCHAR
STARTCHAR N
ENCODING 78
SWIDTH 741 0
DWIDTH 8 0
BBX 6 7 1 0
BITMAP
64
64
54
54
98
88
88
ENDCHAR
STARTCHAR O
ENCODING 79
SWIDTH 777 0
DWIDTH 8 0
BBX 6 7 1 0
BITMAP
38
44
84
84
84
88
70
ENDCHAR
STARTCHAR P
ENCODING 80
SWIDTH 575 0
DWIDTH 6 0
BBX 5 7 1 0
BITMAP
70
48
48
f0
80
80
80
ENDCHAR
STARTCHAR Q
ENCODING 81
SWIDTH 777 0
DWIDTH 8 0
BBX 6 9 1 -2
BITMAP
38
44
84
84
84
88
70
08
04
ENDCHAR
STARTCHAR R
ENCODING 82
SWIDTH 632 0
DWIDTH 7 0
BBX 5 7 1 0
BITMAP
70
48
48
f0
a0
90
88
ENDCHAR
STARTCHAR S
ENCODING 83
SWIDTH 553 0
DWIDTH 6 0
BBX 5 7 1 0
BITMAP
38
40
40
20
10
10
e0
ENDCHAR
STARTCHAR T
ENCODING 84
SWIDTH 623 0
DWIDTH 6 0
BBX 5 7 1 0
BITMAP
f8
20
20
60
40
40
40
ENDCHAR
STARTCHAR U
ENCODING 85
SWIDTH 693 0
DWIDTH 7 0
BBX 6 7 1 0
BITMAP
44
44
44
88
88
90
60
ENDCHAR
STARTCHAR V
ENCODING 86
SWIDTH 687 0
DWIDTH 7 0
BBX 5 7 2 0
BITMAP
88
88
90
90
a0
c0
80
ENDCHAR
STARTCHAR W
ENCODING 87
SWIDTH 886 0
DWIDTH 9 0
BBX 7 7 2 0
BITMAP
82
92
92
b4
b4
d8
90
ENDCHAR
STARTCHAR X
ENCODING 88
SWIDTH 620 0
DWIDTH 6 0
BBX 5 7 1 0
BITMAP
48
48
70
20
70
90
90
ENDCHAR
STARTCHAR Y
ENCODING 89
SWIDTH 608 0
DWIDTH 6 0
BBX 5 7 1 0
BITMAP
88
88
90
60
40
40
40
ENDCHAR
STARTCHAR Z
ENCODING 90
SWIDTH 578 0
DWIDTH 6 0
BBX 6 7 0 0
BITMAP
7c
08
10
20
40
80
f8
ENDCHAR
STARTCHAR bracketleft
ENCODING 91
SWIDTH 325 0
DWIDTH 3 0
BBX 4 9 0 -1
BITMAP
30
20
20
40
40
40
80
80
c0
ENDCHAR
STARTCHAR backslash
ENCODING 92
SWIDTH 482 0
DWIDTH 5 0
BBX 5 9 0 -1
BITMAP
80
80
40
40
20
10
10
08
08
ENDCHAR
STARTCHAR bracketright
ENCODING 93
SWIDTH 325 0
DWIDTH 3 0
BBX 4 9 -1 -1
BITMAP
30
10
10
20
20
20
40
40
c0
ENDCHAR
STARTCHAR asciicircum
ENCODING 94
SWIDTH 633 0
DWIDTH 7 0
BBX 5 6 1 1
BITMAP
08
18
28
48
88
88
ENDCHAR
STARTCHAR underscore
ENCODING 95
SWIDTH 500 0
DWIDTH 7 0
BBX 5 1 1 -1
BITMAP
f8
ENDCHAR
STARTCHAR grave
ENCODING 96
SWIDTH 572 0
DWIDTH 6 0
BBX 2 2 4 7
BITMAP
80
40
ENDCHAR
STARTCHAR a
ENCODING 97
SWIDTH 608 0
DWIDTH 6 0
BBX 5 6 1 0
BITMAP
38
48
88
90
b0
d0
ENDCHAR
STARTCHAR b
ENCODING 98
SWIDTH 608 0
DWIDTH 6 0
BBX 5 8 1 0
BITMAP
20
20
58
68
48
88
90
e0
ENDCHAR
STARTCHAR c
ENCODING 99
SWIDTH 503 0
DWIDTH 5 0
BBX 4 6 1 0
BITMAP
30
40
80
80
80
60
ENDCHAR
STARTCHAR d
ENCODING 100
SWIDTH 608 0
DWIDTH 6 0
BBX 6 8 1 0
BITMAP
04
04
38
48
88
90
b0
d0
ENDCHAR
STARTCHAR e
ENCODING 101
SWIDTH 529 0
DWIDTH 6 0
BBX 5 6 1 0
BITMAP
38
48
90
e0
80
70
ENDCHAR
STARTCHAR f
ENCODING 102
SWIDTH 383 0
DWIDTH 5 0
BBX 5 10 1 -2
BITMAP
18
20
78
20
40
40
40
80
80
80
ENDCHAR
STARTCHAR g
ENCODING 103
SWIDTH 608 0
DWIDTH 6 0
BBX 5 8 1 -2
BITMAP
38
48
88
90
b0
d0
10
e0
ENDCHAR
STARTCHAR h
ENCODING 104
SWIDTH 620 0
DWIDTH 6 0
BBX 5 8 1 0
BITMAP
20
20
58
68
48
90
90
90
ENDCHAR
STARTCHAR i
ENCODING 105
SWIDTH 289 0
DWIDTH 3 0
BBX 3 8 1 0
BITMAP
20
00
40
40
40
80
80
80
ENDCHAR
STARTCHAR j
ENCODING 106
SWIDTH 325 0
DWIDTH 3 0
BBX 5 10 -1 -2
BITMAP
08
00
10
10
10
20
20
20
40
c0
ENDCHAR
STARTCHAR k
ENCODING 107
SWIDTH 572 0
DWIDTH 6 0
BBX 5 8 1 0
BITMAP
20
20
48
50
60
a0
90
88
ENDCHAR
STARTCHAR l
ENCODING 108
SWIDTH 289 0
DWIDTH 3 0
BBX 3 8 1 0
BITMAP
20
20
40
40
40
80
80
80
ENDCHAR
STARTCHAR m
ENCODING 109
SWIDTH 934 0
DWIDTH 9 0
BBX 8 6 1 0
BITMAP
5b
6d
49
92
92
92
ENDCHAR
STARTCHAR n
ENCODING 110
SWIDTH 620 0
DWIDTH 6 0
BBX 5 6 1 0
BITMAP
58
68
48
90
90
90
ENDCHAR
STARTCHAR o
ENCODING 111
SWIDTH 566 0
DWIDTH 6 0
BBX 5 6 1 0
BITMAP
30
48
88
88
90
60
ENDCHAR
STARTCHAR p
ENCODING 112
SWIDTH 608 0
DWIDTH 6 0
BBX 6 8 0 -2
BITMAP
2c
34
24
44
48
70
80
80
ENDCHAR
STARTCHAR q
ENCODING 113
SWIDTH 608 0
DWIDTH 6 0
BBX 5 8 1 -2
BITMAP
38
48
88
90
b0
d0
20
20
ENDCHAR
STARTCHAR r
ENCODING 114
SWIDTH 478 0
DWIDTH 5 0
BBX 4 6 1 0
BITMAP
50
70
40
80
80
80
ENDCHAR
STARTCHAR s
ENCODING 115
SWIDTH 489 0
DWIDTH 5 0
BBX 5 6 0 0
BITMAP
38
40
60
30
10
e0
ENDCHAR
STARTCHAR t
ENCODING 116
SWIDTH 383 0
DWIDTH 4 0
BBX 4 7 1 0
BITMAP
20
f0
40
40
80
80
c0
ENDCHAR
STARTCHAR u
ENCODING 117
SWIDTH 620 0
DWIDTH 6 0
BBX 5 6 1 0
BITMAP
48
48
48
90
b0
d0
ENDCHAR
STARTCHAR v
ENCODING 118
SWIDTH 545 0
DWIDTH 6 0
BBX 4 6 2 0
BITMAP
90
90
90
a0
c0
80
ENDCHAR
STARTCHAR w
ENCODING 119
SWIDTH 795 0
DWIDTH 9 0
BBX 7 6 2 0
BITMAP
82
92
92
b4
d8
90
ENDCHAR
STARTCHAR x
ENCODING 120
SWIDTH 541 0
DWIDTH 5 0
BBX 6 6 0 0
BITMAP
24
28
30
30
50
90
ENDCHAR
STARTCHAR y
ENCODING 121
SWIDTH 548 0
DWIDTH 6 0
BBX 6 8 0 -2
BITMAP
24
24
24
28
28
30
20
c0
ENDCHAR
STARTCHAR z
ENCODING 122
SWIDTH 536 0
DWIDTH 5 0
BBX 5 6 1 0
BITMAP
78
10
20
40
80
f0
ENDCHAR
STARTCHAR braceleft
ENCODING 123
SWIDTH 325 0
DWIDTH 3 0
BBX 5 9 -1 -1
BITMAP
08
10
20
20
c0
20
40
40
20
ENDCHAR
STARTCHAR bar
ENCODING 124
SWIDTH 233 0
DWIDTH 3 0
BBX 3 9 1 -1
BITMAP
20
20
20
40
40
40
80
80
80
ENDCHAR
STARTCHAR braceright
ENCODING 125
SWIDTH 325 0
DWIDTH 3 0
BBX 5 9 -1 -1
BITMAP
20
10
10
20
18
20
20
40
80
ENDCHAR
STARTCHAR asciitilde
ENCODING 126
SWIDTH 633 0
DWIDTH 7 0
BBX 6 2 1 3
BITMAP
64
98
ENDCHAR
STARTCHAR nobreakspace
ENCODING 160
SWIDTH 316 0
DWIDTH 3 0
BBX 1 1 0 0
BITMAP
00
ENDCHAR
STARTCHAR Aogonek
ENCODING 161
SWIDTH 687 0
DWIDTH 7 0
BBX 5 9 1 -2
BITMAP
08
18
28
48
78
88
88
40
30
ENDCHAR
STARTCHAR breve
ENCODING 162
SWIDTH 566 0
DWIDTH 6 0
BBX 4 2 2 7
BITMAP
90
60
ENDCHAR
STARTCHAR Lstroke
ENCODING 163
SWIDTH 545 0
DWIDTH 5 0
BBX 5 7 0 0
BITMAP
20
20
38
e0
40
40
78
ENDCHAR
STARTCHAR currency
ENCODING 164
SWIDTH 633 0
DWIDTH 7 0
BBX 7 7 0 0
BITMAP
42
3c
24
44
48
78
84
ENDCHAR
STARTCHAR Lcaron
ENCODING 165
SWIDTH 600 0
DWIDTH 6 0
BBX 5 8 1 0
BITMAP
08
48
50
40
c0
80
80
f0
ENDCHAR
STARTCHAR Sacute
ENCODING 166
SWIDTH 553 0
DWIDTH 6 0
BBX 5 10 1 0
BITMAP
10
20
00
38
40
40
20
10
10
e0
ENDCHAR
STARTCHAR section
ENCODING 167
SWIDTH 633 0
DWIDTH 7 0
BBX 6 8 1 -1
BITMAP
38
44
70
48
68
18
88
70
ENDCHAR
STARTCHAR diaeresis
ENCODING 168
SWIDTH 566 0
DWIDTH 6 0
BBX 4 1 2 7
BITMAP
90
ENDCHAR
STARTCHAR Scaron
ENCODING 169
SWIDTH 553 0
DWIDTH 6 0
BBX 5 10 1 0
BITMAP
50
20
00
38
40
40
20
10
10
e0
ENDCHAR
STARTCHAR Scedilla
ENCODING 170
SWIDTH 553 0
DWIDTH 6 0
BBX 5 9 1 -2
BITMAP
38
40
40
20
10
10
e0
10
60
ENDCHAR
STARTCHAR Tcaron
ENCODING 171
SWIDTH 623 0
DWIDTH 6 0
BBX 5 10 1 0
BITMAP
50
20
00
f8
20
20
60
40
40
40
ENDCHAR
STARTCHAR Zacute
ENCODING 172
SWIDTH 578 0
DWIDTH 6 0
BBX 6 10 0 0
BITMAP
08
10
00
7c
08
10
20
40
80
f8
ENDCHAR
STARTCHAR hyphen
ENCODING 173
SWIDTH 313 0
DWIDTH 3 0
BBX 2 1 1 3
BITMAP
c0
ENDCHAR
STARTCHAR Zcaron
ENCODING 174
SWIDTH 578 0
DWIDTH 6 0
BBX 6 10 0 0
BITMAP
28
10
00
7c
08
10
20
40
80
f8
ENDCHAR
STARTCHAR Zabovedot
ENCODING 175
SWIDTH 578 0
DWIDTH 6 0
BBX 6 10 0 0
BITMAP
10
10
00
7c
08
10
20
40
80
f8
ENDCHAR
STARTCHAR degree
ENCODING 176
SWIDTH 269 0
DWIDTH 3 0
BBX 3 3 0 4
BITMAP
40
a0
40
ENDCHAR
STARTCHAR aogonek
ENCODING 177
SWIDTH 608 0
DWIDTH 6 0
BBX 5 8 1 -2
BITMAP
38
48
88
90
b0
d0
40
30
ENDCHAR
STARTCHAR ogonek
ENCODING 178
SWIDTH 566 0
DWIDTH 6 0
BBX 3 2 2 -2
BITMAP
80
60
ENDCHAR
STARTCHAR lstroke
ENCODING 179
SWIDTH 289 0
DWIDTH 4 0
BBX 5 8 0 0
BITMAP
10
10
20
38
e0
20
40
40
ENDCHAR
STARTCHAR acute
ENCODING 180
SWIDTH 566 0
DWIDTH 6 0
BBX 2 2 4 7
BITMAP
40
80
ENDCHAR
STARTCHAR lcaron
ENCODING 181
SWIDTH 600 0
DWIDTH 6 0
BBX 6 9 1 0
BITMAP
04
24
28
40
40
40
80
80
80
ENDCHAR
STARTCHAR sacute
ENCODING 182
SWIDTH 489 0
DWIDTH 5 0
BBX 5 9 0 0
BITMAP
10
20
00
38
40
60
30
10
e0
ENDCHAR
STARTCHAR caron
ENCODING 183
SWIDTH 568 0
DWIDTH 6 0
BBX 3 2 3 7
BITMAP
a0
40
ENDCHAR
STARTCHAR cedilla
ENCODING 184
SWIDTH 566 0
DWIDTH 6 0
BBX 3 2 0 -2
BITMAP
20
c0
ENDCHAR
STARTCHAR scaron
ENCODING 185
SWIDTH 489 0
DWIDTH 5 0
BBX 5 9 0 0
BITMAP
50
20
00
38
40
60
30
10
e0
ENDCHAR
STARTCHAR scedilla
ENCODING 186
SWIDTH 489 0
DWIDTH 5 0
BBX 5 8 0 -2
BITMAP
38
40
60
30
10
e0
10
60
ENDCHAR
STARTCHAR tcaron
ENCODING 187
SWIDTH 383 0
DWIDTH 4 0
BBX 4 10 1 0
BITMAP
20
20
40
20
f0
40
40
80
80
c0
ENDCHAR
STARTCHAR zacute
ENCODING 188
SWIDTH 536 0
DWIDTH 5 0
BBX 5 9 1 0
BITMAP
10
20
00
78
10
20
40
80
f0
ENDCHAR
STARTCHAR doubleacute
ENCODING 189
SWIDTH 566 0
DWIDTH 6 0
BBX 5 2 1 7
BITMAP
48
90
ENDCHAR
STARTCHAR zcaron
ENCODING 190
SWIDTH 536 0
DWIDTH 5 0
BBX 5 9 1 0
BITMAP
50
20
00
78
10
20
40
80
f0
ENDCHAR
STARTCHAR zabovedot
ENCODING 191
SWIDTH 536 0
DWIDTH 5 0
BBX 5 9 1 0
BITMAP
20
20
00
78
10
20
40
80
f0
ENDCHAR
STARTCHAR Racute
ENCODING 192
SWIDTH 632 0
DWIDTH 7 0
BBX 5 10 1 0
BITMAP
10
20
00
70
48
48
f0
a0
90
88
ENDCHAR
STARTCHAR Aacute
ENCODING 193
SWIDTH 687 0
DWIDTH 7 0
BBX 5 9 1 0
BITMAP
08
10
00
18
28
48
78
88
88
ENDCHAR
STARTCHAR Acircumflex
ENCODING 194
SWIDTH 687 0
DWIDTH 7 0
BBX 5 9 1 0
BITMAP
10
28
00
18
28
48
78
88
88
ENDCHAR
STARTCHAR Abreve
ENCODING 195
SWIDTH 687 0
DWIDTH 7 0
BBX 6 10 1 0
BITMAP
24
18
00
08
18
28
48
78
88
88
ENDCHAR
STARTCHAR Adiaeresis
ENCODING 196
SWIDTH 687 0
DWIDTH 7 0
BBX 5 8 1 0
BITMAP
28
00
18
28
48
78
88
88
ENDCHAR
STARTCHAR Lacute
ENCODING 197
SWIDTH 545 0
DWIDTH 5 0
BBX 4 10 1 0
BITMAP
20
40
00
40
40
40
c0
80
80
f0
ENDCHAR
STARTCHAR Cacute
ENCODING 198
SWIDTH 679 0
DWIDTH 7 0
BBX 6 10 1 0
BITMAP
08
10
00
3c
40
80
80
80
80
78
ENDCHAR
STARTCHAR Ccedilla
ENCODING 199
SWIDTH 679 0
DWIDTH 7 0
BBX 6 9 1 -2
BITMAP
3c
40
80
80
80
80
78
20
c0
ENDCHAR
STARTCHAR Ccaron
ENCODING 200
SWIDTH 679 0
DWIDTH 7 0
BBX 6 10 1 0
BITMAP
28
10
00
3c
40
80
80
80
80
78
ENDCHAR
STARTCHAR Eacute
ENCODING 201
SWIDTH 547 0
DWIDTH 6 0
BBX 5 9 1 0
BITMAP
10
20
00
78
40
70
80
80
f0
ENDCHAR
STARTCHAR Eogonek
ENCODING 202
SWIDTH 547 0
DWIDTH 6 0
BBX 5 9 1 -2
BITMAP
78
40
40
f0
80
80
f0
40
30
ENDCHAR
STARTCHAR Ediaeresis
ENCODING 203
SWIDTH 547 0
DWIDTH 6 0
BBX 5 8 1 0
BITMAP
48
00
78
40
70
80
80
f0
ENDCHAR
STARTCHAR Ecaron
ENCODING 204
SWIDTH 547 0
DWIDTH 6 0
BBX 5 10 1 0
BITMAP
50
20
00
78
40
40
f0
80
80
f0
ENDCHAR
STARTCHAR Iacute
ENCODING 205
SWIDTH 289 0
DWIDTH 4 0
BBX 3 9 1 0
BITMAP
20
40
00
40
40
c0
80
80
80
ENDCHAR
STARTCHAR Icircumflex
ENCODING 206
SWIDTH 289 0
DWIDTH 4 0
BBX 3 9 1 0
BITMAP
40
a0
00
40
40
c0
80
80
80
ENDCHAR
STARTCHAR Dcaron
ENCODING 207
SWIDTH 743 0
DWIDTH 8 0
BBX 6 10 1 0
BITMAP
28
10
00
78
44
44
c4
84
88
f0
ENDCHAR
STARTCHAR Dstroke
ENCODING 208
SWIDTH 743 0
DWIDTH 8 0
BBX 7 7 0 0
BITMAP
3c
22
22
f2
42
44
78
ENDCHAR
STARTCHAR Nacute
ENCODING 209
SWIDTH 741 0
DWIDTH 8 0
BBX 6 10 1 0
BITMAP
08
10
00
64
64
54
54
98
88
88
ENDCHAR
STARTCHAR Ncaron
ENCODING 210
SWIDTH 741 0
DWIDTH 8 0
BBX 6 10 1 0
BITMAP
28
10
00
64
64
54
54
98
88
88
ENDCHAR
STARTCHAR Oacute
ENCODING 211
SWIDTH 777 0
DWIDTH 8 0
BBX 6 9 1 0
BITMAP
08
10
00
38
44
84
84
88
70
ENDCHAR
STARTCHAR Ocircumflex
ENCODING 212
SWIDTH 777 0
DWIDTH 8 0
BBX 6 9 1 0
BITMAP
10
28
00
38
44
84
84
88
70
ENDCHAR
STARTCHAR Odoubleacute
ENCODING 213
SWIDTH 777 0
DWIDTH 8 0
BBX 7 10 1 0
BITMAP
12
24
00
38
44
84
84
84
88
70
ENDCHAR
STARTCHAR Odiaeresis
ENCODING 214
SWIDTH 777 0
DWIDTH 8 0
BBX 6 8 1 0
BITMAP
24
00
38
44
84
84
88
70
ENDCHAR
STARTCHAR multiply
ENCODING 215
SWIDTH 633 0
DWIDTH 7 0
BBX 6 5 1 1
BITMAP
44
28
30
50
88
ENDCHAR
STARTCHAR Rcaron
ENCODING 216
SWIDTH 632 0
DWIDTH 7 0
BBX 5 10 1 0
BITMAP
50
20
00
70
48
48
f0
a0
90
88
ENDCHAR
STARTCHAR Uring
ENCODING 217
SWIDTH 693 0
DWIDTH 7 0
BBX 6 11 1 0
BITMAP
10
28
10
00
44
44
44
88
88
90
60
ENDCHAR
STARTCHAR Uacute
ENCODING 218
SWIDTH 693 0
DWIDTH 7 0
BBX 6 9 1 0
BITMAP
08
10
00
44
44
88
88
90
60
ENDCHAR
STARTCHAR Udoubleacute
ENCODING 219
SWIDTH 693 0
DWIDTH 7 0
BBX 7 10 1 0
BITMAP
12
24
00
44
44
44
88
88
90
60
ENDCHAR
STARTCHAR Udiaeresis
ENCODING 220
SWIDTH 693 0
DWIDTH 7 0
BBX 6 8 1 0
BITMAP
24
00
44
44
88
88
90
60
ENDCHAR
STARTCHAR Yacute
ENCODING 221
SWIDTH 608 0
DWIDTH 6 0
BBX 5 9 1 0
BITMAP
20
50
00
88
90
60
40
40
40
ENDCHAR
STARTCHAR Tcedilla
ENCODING 222
SWIDTH 623 0
DWIDTH 6 0
BBX 5 9 1 -2
BITMAP
f8
20
20
60
40
40
40
10
60
ENDCHAR
STARTCHAR ssharp
ENCODING 223
SWIDTH 595 0
DWIDTH 6 0
BBX 5 9 1 -1
BITMAP
30
28
48
50
48
88
88
b0
80
ENDCHAR
STARTCHAR racute
ENCODING 224
SWIDTH 478 0
DWIDTH 5 0
BBX 4 9 1 0
BITMAP
10
20
00
50
70
40
80
80
80
ENDCHAR
STARTCHAR aacute
ENCODING 225
SWIDTH 608 0
DWIDTH 6 0
BBX 5 9 1 0
BITMAP
08
10
00
38
48
88
90
b0
d0
ENDCHAR
STARTCHAR acircumflex
ENCODING 226
SWIDTH 608 0
DWIDTH 6 0
BBX 5 9 1 0
BITMAP
10
28
00
38
48
88
90
b0
d0
ENDCHAR
STARTCHAR abreve
ENCODING 227
SWIDTH 608 0
DWIDTH 6 0
BBX 5 9 1 0
BITMAP
48
30
00
38
48
88
90
b0
d0
ENDCHAR
STARTCHAR adiaeresis
ENCODING 228
SWIDTH 608 0
DWIDTH 6 0
BBX 5 8 1 0
BITMAP
48
00
38
48
88
90
b0
d0
ENDCHAR
STARTCHAR lacute
ENCODING 229
SWIDTH 289 0
DWIDTH 3 0
BBX 4 11 1 0
BITMAP
10
20
00
20
20
40
40
40
80
80
80
ENDCHAR
STARTCHAR cacute
ENCODING 230
SWIDTH 503 0
DWIDTH 5 0
BBX 4 9 1 0
BITMAP
10
20
00
30
40
80
80
80
60
ENDCHAR
STARTCHAR ccedilla
ENCODING 231
SWIDTH 503 0
DWIDTH 5 0
BBX 5 8 0 -2
BITMAP
18
20
40
40
40
30
20
c0
ENDCHAR
STARTCHAR ccaron
ENCODING 232
SWIDTH 503 0
DWIDTH 5 0
BBX 4 9 1 0
BITMAP
50
20
00
30
40
80
80
80
60
ENDCHAR
STARTCHAR eacute
ENCODING 233
SWIDTH 529 0
DWIDTH 6 0
BBX 5 9 1 0
BITMAP
08
10
00
38
48
90
e0
80
70
ENDCHAR
STARTCHAR eogonek
ENCODING 234
SWIDTH 529 0
DWIDTH 6 0
BBX 5 8 1 -2
BITMAP
38
48
90
e0
80
70
40
30
ENDCHAR
STARTCHAR ediaeresis
ENCODING 235
SWIDTH 529 0
DWIDTH 6 0
BBX 5 8 1 0
BITMAP
48
00
38
48
90
e0
80
70
ENDCHAR
STARTCHAR ecaron
ENCODING 236
SWIDTH 529 0
DWIDTH 6 0
BBX 5 9 1 0
BITMAP
50
20
00
38
48
90
e0
80
70
ENDCHAR
STARTCHAR iacute
ENCODING 237
SWIDTH 289 0
DWIDTH 3 0
BBX 3 9 1 0
BITMAP
20
40
00
40
40
40
80
80
80
ENDCHAR
STARTCHAR icircumflex
ENCODING 238
SWIDTH 289 0
DWIDTH 3 0
BBX 3 9 1 0
BITMAP
40
a0
00
40
40
40
80
80
80
ENDCHAR
STARTCHAR dcaron
ENCODING 239
SWIDTH 900 0
DWIDTH 9 0
BBX 9 9 1 0
BITMAP
0080
0480
0500
3800
4800
8800
9000
b000
d000
ENDCHAR
STARTCHAR dstroke
ENCODING 240
SWIDTH 800 0
DWIDTH 8 0
BBX 8 8 1 0
BITMAP
1f
04
38
48
88
90
b0
d0
ENDCHAR
STARTCHAR nacute
ENCODING 241
SWIDTH 620 0
DWIDTH 6 0
BBX 5 9 1 0
BITMAP
10
20
00
58
68
48
90
90
90
ENDCHAR
STARTCHAR ncaron
ENCODING 242
SWIDTH 620 0
DWIDTH 6 0
BBX 5 9 1 0
BITMAP
50
20
00
58
68
48
90
90
90
ENDCHAR
STARTCHAR oacute
ENCODING 243
SWIDTH 566 0
DWIDTH 6 0
BBX 5 9 1 0
BITMAP
08
10
00
30
48
88
88
90
60
ENDCHAR
STARTCHAR ocircumflex
ENCODING 244
SWIDTH 566 0
DWIDTH 6 0
BBX 5 9 1 0
BITMAP
10
28
00
30
48
88
88
90
60
ENDCHAR
STARTCHAR odoubleacute
ENCODING 245
SWIDTH 566 0
DWIDTH 6 0
BBX 6 9 1 0
BITMAP
24
48
00
30
48
88
88
90
60
ENDCHAR
STARTCHAR odiaeresis
ENCODING 246
SWIDTH 566 0
DWIDTH 6 0
BBX 5 8 1 0
BITMAP
48
00
30
48
88
88
90
60
ENDCHAR
STARTCHAR division
ENCODING 247
SWIDTH 633 0
DWIDTH 7 0
BBX 6 5 1 1
BITMAP
10
00
fc
00
20
ENDCHAR
STARTCHAR rcaron
ENCODING 248
SWIDTH 478 0
DWIDTH 5 0
BBX 4 9 1 0
BITMAP
50
20
00
50
70
40
80
80
80
ENDCHAR
STARTCHAR uring
ENCODING 249
SWIDTH 620 0
DWIDTH 6 0
BBX 5 10 1 0
BITMAP
20
50
20
00
48
48
48
90
b0
d0
ENDCHAR
STARTCHAR uacute
ENCODING 250
SWIDTH 620 0
DWIDTH 6 0
BBX 5 9 1 0
BITMAP
08
10
00
48
48
48
90
b0
d0
ENDCHAR
STARTCHAR udoubleacute
ENCODING 251
SWIDTH 620 0
DWIDTH 6 0
BBX 6 9 1 0
BITMAP
24
48
00
48
48
48
90
b0
d0
ENDCHAR
STARTCHAR udiaeresis
ENCODING 252
SWIDTH 620 0
DWIDTH 6 0
BBX 5 8 1 0
BITMAP
48
00
48
48
48
90
b0
d0
ENDCHAR
STARTCHAR yacute
ENCODING 253
SWIDTH 548 0
DWIDTH 6 0
BBX 6 11 0 -2
BITMAP
04
08
00
24
24
24
28
28
30
20
c0
ENDCHAR
STARTCHAR tcedilla
ENCODING 254
SWIDTH 383 0
DWIDTH 4 0
BBX 4 9 1 -2
BITMAP
20
f0
40
40
80
80
c0
20
c0
ENDCHAR
STARTCHAR abovedot
ENCODING 255
SWIDTH 566 0
DWIDTH 6 0
BBX 1 2 4 7
BITMAP
80
80
ENDCHAR
ENDFONT
